<?xml version="1.0" encoding="UTF-8"?> <svg xmlns="http://www.w3.org/2000/svg" xmlns:xlink="http://www.w3.org/1999/xlink" width="600" zoomAndPan="magnify" viewBox="0 0 450 299.999988" height="400" preserveAspectRatio="xMidYMid meet" version="1.0"><defs><g></g><clipPath id="09a2d6e7e9"><path d="M 0 0 L 450 0 L 450 299.261719 L 0 299.261719 Z M 0 0 " clip-rule="nonzero"></path></clipPath><clipPath id="8b68838f07"><path d="M 159.566406 29.25 L 290.066406 29.25 L 290.066406 138.75 L 159.566406 138.75 Z M 159.566406 29.25 " clip-rule="nonzero"></path></clipPath><clipPath id="bb905da0ee"><path d="M 81.492188 96.871094 L 383.929688 96.871094 L 383.929688 186.871094 L 81.492188 186.871094 Z M 81.492188 96.871094 " clip-rule="nonzero"></path></clipPath><clipPath id="1a54a8e601"><path d="M 217 237 L 226 237 L 226 247 L 217 247 Z M 217 237 " clip-rule="nonzero"></path></clipPath><clipPath id="2d0458b8ea"><path d="M 215.59375 239.859375 L 222.351562 236.457031 L 226.554688 244.925781 L 219.796875 248.328125 Z M 215.59375 239.859375 " clip-rule="nonzero"></path></clipPath><clipPath id="12116613bc"><path d="M 217.859375 244.085938 C 219.007812 246.402344 221.417969 247.511719 223.238281 246.597656 C 225.070312 245.675781 225.609375 243.058594 224.46875 240.761719 C 223.320312 238.445312 220.910156 237.335938 219.09375 238.25 C 217.253906 239.15625 216.710938 241.773438 217.859375 244.085938 " clip-rule="nonzero"></path></clipPath></defs><rect x="-45" width="540" fill="#ffffff" y="-29.999999" height="359.999986" fill-opacity="1"></rect><rect x="-45" width="540" fill="#ffffff" y="-29.999999" height="359.999986" fill-opacity="1"></rect><g clip-path="url(#09a2d6e7e9)"><path fill="#169be6" d="M 0 -0.738281 L 450 -0.738281 L 450 299.261719 L 0 299.261719 Z M 0 -0.738281 " fill-opacity="1" fill-rule="nonzero"></path></g><g clip-path="url(#8b68838f07)"><path fill="#1f3c5f" d="M 290.417969 58.328125 C 290.417969 57.390625 289.660156 56.632812 288.726562 56.632812 L 279.136719 56.632812 L 279.136719 51.90625 C 279.136719 50.96875 278.378906 50.210938 277.441406 50.210938 L 245.96875 50.210938 L 245.96875 47.800781 C 245.96875 47.082031 245.519531 46.445312 244.84375 46.203125 L 241.003906 44.839844 L 240.121094 42.707031 L 241.871094 39.027344 C 242.179688 38.378906 242.046875 37.609375 241.539062 37.101562 L 238.117188 33.679688 C 237.609375 33.175781 236.839844 33.042969 236.195312 33.347656 L 232.511719 35.097656 L 230.382812 34.214844 L 229.015625 30.375 C 228.777344 29.703125 228.136719 29.25 227.421875 29.25 L 222.582031 29.25 C 221.867188 29.25 221.226562 29.703125 220.984375 30.375 L 219.621094 34.214844 L 217.488281 35.097656 L 213.808594 33.347656 C 213.160156 33.042969 212.390625 33.175781 211.882812 33.679688 L 208.464844 37.101562 C 207.957031 37.609375 207.824219 38.378906 208.132812 39.027344 L 209.878906 42.707031 L 208.996094 44.839844 L 205.160156 46.203125 C 204.484375 46.445312 204.03125 47.082031 204.03125 47.800781 L 204.03125 50.210938 L 172.558594 50.210938 C 171.621094 50.210938 170.863281 50.96875 170.863281 51.90625 L 170.863281 56.632812 L 161.273438 56.632812 C 160.339844 56.632812 159.582031 57.390625 159.582031 58.328125 L 159.582031 132.441406 C 159.582031 133.375 160.339844 134.132812 161.273438 134.132812 L 216.09375 134.132812 C 216.730469 134.132812 217.328125 134.417969 217.730469 134.917969 C 219.515625 137.121094 222.164062 138.386719 225 138.386719 C 227.835938 138.386719 230.484375 137.121094 232.269531 134.917969 C 232.671875 134.417969 233.269531 134.132812 233.90625 134.132812 L 288.726562 134.132812 C 289.660156 134.132812 290.417969 133.375 290.417969 132.441406 C 290.417969 132.371094 290.414062 132.304688 290.40625 132.234375 C 290.414062 132.167969 290.417969 132.101562 290.417969 132.03125 Z M 275.75 119.246094 L 232.328125 119.246094 C 230.867188 119.246094 229.5 119.898438 228.582031 121.035156 L 226.695312 123.371094 L 226.695312 71.1875 L 227.421875 71.1875 C 228.136719 71.1875 228.777344 70.738281 229.015625 70.0625 L 230.378906 66.222656 L 232.511719 65.339844 L 236.191406 67.089844 C 236.839844 67.398438 237.609375 67.265625 238.117188 66.757812 L 241.539062 63.335938 C 242.042969 62.828125 242.179688 62.058594 241.871094 61.410156 L 240.121094 57.730469 L 241.003906 55.601562 L 244.84375 54.234375 C 245.1875 54.113281 245.472656 53.886719 245.671875 53.597656 L 275.75 53.597656 Z M 207.417969 48.996094 L 210.839844 47.777344 C 211.292969 47.617188 211.652344 47.273438 211.835938 46.832031 L 213.296875 43.308594 C 213.480469 42.867188 213.464844 42.367188 213.261719 41.933594 L 211.699219 38.652344 L 213.433594 36.921875 L 216.714844 38.480469 C 217.148438 38.683594 217.644531 38.699219 218.089844 38.515625 L 221.609375 37.054688 C 222.054688 36.871094 222.398438 36.511719 222.558594 36.058594 L 223.777344 32.636719 L 226.226562 32.636719 L 227.441406 36.058594 C 227.601562 36.511719 227.945312 36.871094 228.390625 37.054688 L 231.910156 38.515625 C 232.355469 38.699219 232.855469 38.683594 233.285156 38.480469 L 236.566406 36.921875 L 238.300781 38.652344 L 236.738281 41.933594 C 236.535156 42.367188 236.519531 42.863281 236.703125 43.308594 L 238.164062 46.828125 C 238.347656 47.273438 238.710938 47.617188 239.160156 47.777344 L 242.582031 48.996094 L 242.582031 51.445312 L 239.160156 52.660156 C 238.710938 52.820312 238.347656 53.164062 238.164062 53.609375 L 236.703125 57.128906 C 236.519531 57.574219 236.535156 58.074219 236.738281 58.503906 L 238.300781 61.785156 L 236.566406 63.519531 L 233.285156 61.957031 C 232.855469 61.753906 232.355469 61.738281 231.910156 61.921875 L 228.390625 63.382812 C 227.945312 63.566406 227.601562 63.929688 227.441406 64.378906 L 226.226562 67.800781 L 223.777344 67.800781 L 222.558594 64.378906 C 222.398438 63.929688 222.054688 63.566406 221.609375 63.382812 L 218.089844 61.921875 C 217.644531 61.738281 217.148438 61.753906 216.714844 61.957031 L 213.433594 63.519531 L 211.699219 61.785156 L 213.261719 58.503906 C 213.464844 58.070312 213.480469 57.574219 213.296875 57.128906 L 211.835938 53.605469 C 211.652344 53.164062 211.292969 52.820312 210.839844 52.660156 L 207.417969 51.441406 Z M 174.25 53.597656 L 204.328125 53.597656 C 204.527344 53.886719 204.8125 54.113281 205.15625 54.234375 L 208.996094 55.597656 L 209.878906 57.730469 L 208.128906 61.410156 C 207.820312 62.058594 207.953125 62.828125 208.460938 63.335938 L 211.882812 66.757812 C 212.390625 67.261719 213.160156 67.394531 213.808594 67.089844 L 217.488281 65.339844 L 219.617188 66.222656 L 220.984375 70.0625 C 221.226562 70.738281 221.863281 71.1875 222.578125 71.1875 L 223.304688 71.1875 L 223.304688 123.367188 L 221.417969 121.03125 C 220.5 119.894531 219.132812 119.242188 217.671875 119.242188 L 174.25 119.242188 Z M 229.636719 132.789062 C 228.5 134.195312 226.808594 135 225 135 C 223.191406 135 221.5 134.195312 220.363281 132.789062 C 219.316406 131.492188 217.761719 130.746094 216.09375 130.746094 L 162.96875 130.746094 L 162.96875 60.019531 L 170.863281 60.019531 L 170.863281 120.9375 C 170.863281 121.875 171.621094 122.632812 172.558594 122.632812 L 217.671875 122.632812 C 218.105469 122.632812 218.511719 122.824219 218.785156 123.164062 L 223.683594 129.222656 C 224.003906 129.617188 224.488281 129.851562 225 129.851562 C 225.511719 129.851562 225.996094 129.617188 226.316406 129.222656 L 231.214844 123.164062 C 231.488281 122.824219 231.894531 122.632812 232.328125 122.632812 L 277.441406 122.632812 C 278.378906 122.632812 279.136719 121.875 279.136719 120.9375 L 279.136719 60.019531 L 287.03125 60.019531 L 287.03125 130.746094 L 233.90625 130.746094 C 232.238281 130.746094 230.683594 131.492188 229.636719 132.789062 Z M 229.636719 132.789062 " fill-opacity="1" fill-rule="nonzero"></path></g><path fill="#1f3c5f" d="M 225 59.230469 C 229.96875 59.230469 234.011719 55.1875 234.011719 50.21875 C 234.011719 45.25 229.96875 41.207031 225 41.207031 C 220.03125 41.207031 215.988281 45.25 215.988281 50.21875 C 215.988281 55.1875 220.03125 59.230469 225 59.230469 Z M 225 44.59375 C 228.101562 44.59375 230.625 47.117188 230.625 50.21875 C 230.625 53.320312 228.101562 55.84375 225 55.84375 C 221.898438 55.84375 219.375 53.320312 219.375 50.21875 C 219.375 47.117188 221.898438 44.59375 225 44.59375 Z M 225 44.59375 " fill-opacity="1" fill-rule="nonzero"></path><path fill="#1f3c5f" d="M 183.105469 74.351562 C 183.421875 74.667969 183.855469 74.847656 184.304688 74.847656 C 184.753906 74.847656 185.183594 74.667969 185.5 74.351562 L 192.820312 67.035156 C 193.480469 66.371094 193.480469 65.300781 192.820312 64.640625 C 192.15625 63.976562 191.085938 63.976562 190.421875 64.640625 L 184.304688 70.761719 L 181.863281 68.320312 C 181.203125 67.660156 180.128906 67.660156 179.46875 68.320312 C 178.808594 68.980469 178.808594 70.054688 179.46875 70.714844 Z M 183.105469 74.351562 " fill-opacity="1" fill-rule="nonzero"></path><path fill="#1f3c5f" d="M 213.960938 69.488281 L 194.570312 69.488281 C 193.632812 69.488281 192.875 70.246094 192.875 71.179688 C 192.875 72.117188 193.632812 72.875 194.570312 72.875 L 213.960938 72.875 C 214.898438 72.875 215.65625 72.117188 215.65625 71.179688 C 215.65625 70.246094 214.898438 69.488281 213.960938 69.488281 Z M 213.960938 69.488281 " fill-opacity="1" fill-rule="nonzero"></path><path fill="#1f3c5f" d="M 183.105469 91.226562 C 183.4375 91.558594 183.871094 91.722656 184.304688 91.722656 C 184.738281 91.722656 185.171875 91.558594 185.5 91.226562 L 192.820312 83.910156 C 193.480469 83.25 193.480469 82.175781 192.820312 81.515625 C 192.15625 80.855469 191.085938 80.855469 190.421875 81.515625 L 184.304688 87.636719 L 181.863281 85.195312 C 181.203125 84.535156 180.128906 84.535156 179.46875 85.195312 C 178.808594 85.855469 178.808594 86.929688 179.46875 87.589844 Z M 183.105469 91.226562 " fill-opacity="1" fill-rule="nonzero"></path><path fill="#1f3c5f" d="M 213.960938 86.363281 L 194.570312 86.363281 C 193.632812 86.363281 192.875 87.121094 192.875 88.058594 C 192.875 88.992188 193.632812 89.75 194.570312 89.75 L 213.960938 89.75 C 214.898438 89.75 215.65625 88.992188 215.65625 88.058594 C 215.65625 87.121094 214.898438 86.363281 213.960938 86.363281 Z M 213.960938 86.363281 " fill-opacity="1" fill-rule="nonzero"></path><path fill="#1f3c5f" d="M 192.820312 98.390625 C 192.15625 97.730469 191.085938 97.730469 190.421875 98.390625 L 184.304688 104.511719 L 181.863281 102.074219 C 181.203125 101.410156 180.128906 101.410156 179.46875 102.074219 C 178.808594 102.734375 178.808594 103.804688 179.46875 104.46875 L 183.105469 108.105469 C 183.4375 108.433594 183.871094 108.601562 184.304688 108.601562 C 184.738281 108.601562 185.171875 108.433594 185.5 108.105469 L 192.820312 100.785156 C 193.480469 100.125 193.480469 99.054688 192.820312 98.390625 Z M 192.820312 98.390625 " fill-opacity="1" fill-rule="nonzero"></path><path fill="#1f3c5f" d="M 213.960938 103.238281 L 194.570312 103.238281 C 193.632812 103.238281 192.875 104 192.875 104.933594 C 192.875 105.867188 193.632812 106.625 194.570312 106.625 L 213.960938 106.625 C 214.898438 106.625 215.65625 105.867188 215.65625 104.933594 C 215.65625 104 214.898438 103.238281 213.960938 103.238281 Z M 213.960938 103.238281 " fill-opacity="1" fill-rule="nonzero"></path><path fill="#1f3c5f" d="M 243.757812 64.640625 L 237.636719 70.761719 L 235.199219 68.320312 C 234.535156 67.660156 233.464844 67.660156 232.804688 68.320312 C 232.140625 68.980469 232.140625 70.054688 232.804688 70.714844 L 236.441406 74.351562 C 236.757812 74.667969 237.1875 74.847656 237.636719 74.847656 C 238.085938 74.847656 238.519531 74.667969 238.835938 74.351562 L 246.152344 67.035156 C 246.816406 66.371094 246.816406 65.300781 246.152344 64.640625 C 245.492188 63.976562 244.421875 63.976562 243.757812 64.640625 Z M 243.757812 64.640625 " fill-opacity="1" fill-rule="nonzero"></path><path fill="#1f3c5f" d="M 247.90625 72.875 L 267.296875 72.875 C 268.230469 72.875 268.988281 72.117188 268.988281 71.179688 C 268.988281 70.246094 268.230469 69.488281 267.296875 69.488281 L 247.90625 69.488281 C 246.96875 69.488281 246.210938 70.246094 246.210938 71.179688 C 246.210938 72.117188 246.96875 72.875 247.90625 72.875 Z M 247.90625 72.875 " fill-opacity="1" fill-rule="nonzero"></path><path fill="#1f3c5f" d="M 236.441406 91.226562 C 236.773438 91.558594 237.203125 91.722656 237.636719 91.722656 C 238.070312 91.722656 238.503906 91.558594 238.835938 91.226562 L 246.152344 83.910156 C 246.816406 83.25 246.816406 82.175781 246.152344 81.515625 C 245.492188 80.855469 244.421875 80.855469 243.757812 81.515625 L 237.636719 87.636719 L 235.199219 85.195312 C 234.535156 84.535156 233.464844 84.535156 232.804688 85.195312 C 232.144531 85.859375 232.140625 86.929688 232.804688 87.589844 Z M 236.441406 91.226562 " fill-opacity="1" fill-rule="nonzero"></path><path fill="#1f3c5f" d="M 267.296875 86.363281 L 247.90625 86.363281 C 246.96875 86.363281 246.210938 87.121094 246.210938 88.058594 C 246.210938 88.992188 246.96875 89.75 247.90625 89.75 L 267.296875 89.75 C 268.230469 89.75 268.992188 88.992188 268.992188 88.058594 C 268.992188 87.121094 268.230469 86.363281 267.296875 86.363281 Z M 267.296875 86.363281 " fill-opacity="1" fill-rule="nonzero"></path><path fill="#1f3c5f" d="M 246.152344 98.390625 C 245.492188 97.730469 244.417969 97.730469 243.757812 98.390625 L 237.636719 104.511719 L 235.199219 102.074219 C 234.535156 101.410156 233.464844 101.410156 232.804688 102.074219 C 232.140625 102.734375 232.140625 103.804688 232.804688 104.46875 L 236.441406 108.105469 C 236.769531 108.433594 237.203125 108.601562 237.636719 108.601562 C 238.070312 108.601562 238.503906 108.433594 238.835938 108.105469 L 246.152344 100.785156 C 246.816406 100.125 246.816406 99.054688 246.152344 98.390625 Z M 246.152344 98.390625 " fill-opacity="1" fill-rule="nonzero"></path><path fill="#1f3c5f" d="M 267.296875 103.238281 L 247.90625 103.238281 C 246.96875 103.238281 246.210938 104 246.210938 104.933594 C 246.210938 105.867188 246.96875 106.625 247.90625 106.625 L 267.296875 106.625 C 268.230469 106.625 268.992188 105.867188 268.992188 104.933594 C 268.992188 104 268.230469 103.238281 267.296875 103.238281 Z M 267.296875 103.238281 " fill-opacity="1" fill-rule="nonzero"></path><g clip-path="url(#bb905da0ee)"><path fill="#169be6" d="M 81.492188 96.871094 L 383.835938 96.871094 L 383.835938 186.871094 L 81.492188 186.871094 Z M 81.492188 96.871094 " fill-opacity="1" fill-rule="nonzero"></path></g><g fill="#ffffff" fill-opacity="1"><g transform="translate(114.83016, 129.941416)"><g><path d="M 1.0625 -19.90625 L 1.0625 -24.765625 L 22 -24.765625 L 22 -19.90625 L 14.484375 -19.90625 L 14.484375 0 L 8.578125 0 L 8.578125 -19.90625 Z M 1.0625 -19.90625 "></path></g></g></g><g fill="#ffffff" fill-opacity="1"><g transform="translate(137.88384, 129.941416)"><g><path d="M 1.875 0 L 1.875 -24.765625 L 7.859375 -24.765625 L 7.859375 -14.828125 L 17.609375 -14.828125 L 17.609375 -24.765625 L 23.59375 -24.765625 L 23.59375 0 L 17.609375 0 L 17.609375 -9.953125 L 7.859375 -9.953125 L 7.859375 0 Z M 1.875 0 "></path></g></g></g><g fill="#ffffff" fill-opacity="1"><g transform="translate(163.343232, 129.941416)"><g><path d="M 1.875 0 L 1.875 -24.765625 L 19.140625 -24.765625 L 19.140625 -19.90625 L 7.859375 -19.90625 L 7.859375 -14.828125 L 18.25 -14.828125 L 18.25 -9.953125 L 7.859375 -9.953125 L 7.859375 -4.859375 L 19.140625 -4.859375 L 19.140625 0 Z M 1.875 0 "></path></g></g></g><g fill="#ffffff" fill-opacity="1"><g transform="translate(184.353878, 129.941416)"><g></g></g></g><g fill="#ffffff" fill-opacity="1"><g transform="translate(191.679796, 129.941416)"><g><path d="M 24.34375 -15.796875 L 18.3125 -15.796875 C 18.226562 -16.410156 18.0625 -16.96875 17.8125 -17.46875 C 17.5625 -17.96875 17.226562 -18.394531 16.8125 -18.75 C 16.40625 -19.101562 15.921875 -19.375 15.359375 -19.5625 C 14.796875 -19.757812 14.175781 -19.859375 13.5 -19.859375 C 12.300781 -19.859375 11.269531 -19.5625 10.40625 -18.96875 C 9.539062 -18.382812 8.875 -17.535156 8.40625 -16.421875 C 7.945312 -15.304688 7.71875 -13.957031 7.71875 -12.375 C 7.71875 -10.738281 7.953125 -9.363281 8.421875 -8.25 C 8.890625 -7.144531 9.550781 -6.3125 10.40625 -5.75 C 11.269531 -5.1875 12.289062 -4.90625 13.46875 -4.90625 C 14.125 -4.90625 14.722656 -4.988281 15.265625 -5.15625 C 15.816406 -5.332031 16.300781 -5.582031 16.71875 -5.90625 C 17.132812 -6.226562 17.472656 -6.625 17.734375 -7.09375 C 18.003906 -7.570312 18.195312 -8.109375 18.3125 -8.703125 L 24.34375 -8.671875 C 24.238281 -7.578125 23.921875 -6.492188 23.390625 -5.421875 C 22.867188 -4.359375 22.148438 -3.390625 21.234375 -2.515625 C 20.316406 -1.640625 19.195312 -0.941406 17.875 -0.421875 C 16.5625 0.0859375 15.050781 0.34375 13.34375 0.34375 C 11.101562 0.34375 9.097656 -0.148438 7.328125 -1.140625 C 5.554688 -2.128906 4.160156 -3.570312 3.140625 -5.46875 C 2.117188 -7.363281 1.609375 -9.664062 1.609375 -12.375 C 1.609375 -15.101562 2.128906 -17.414062 3.171875 -19.3125 C 4.210938 -21.207031 5.617188 -22.644531 7.390625 -23.625 C 9.160156 -24.601562 11.144531 -25.09375 13.34375 -25.09375 C 14.84375 -25.09375 16.226562 -24.882812 17.5 -24.46875 C 18.78125 -24.0625 19.898438 -23.457031 20.859375 -22.65625 C 21.828125 -21.863281 22.613281 -20.890625 23.21875 -19.734375 C 23.820312 -18.585938 24.195312 -17.273438 24.34375 -15.796875 Z M 24.34375 -15.796875 "></path></g></g></g><g fill="#ffffff" fill-opacity="1"><g transform="translate(217.562308, 129.941416)"><g><path d="M 25.25 -12.375 C 25.25 -9.65625 24.722656 -7.347656 23.671875 -5.453125 C 22.617188 -3.554688 21.203125 -2.113281 19.421875 -1.125 C 17.640625 -0.144531 15.640625 0.34375 13.421875 0.34375 C 11.191406 0.34375 9.1875 -0.148438 7.40625 -1.140625 C 5.625 -2.140625 4.210938 -3.582031 3.171875 -5.46875 C 2.128906 -7.363281 1.609375 -9.664062 1.609375 -12.375 C 1.609375 -15.101562 2.128906 -17.414062 3.171875 -19.3125 C 4.210938 -21.207031 5.625 -22.644531 7.40625 -23.625 C 9.1875 -24.601562 11.191406 -25.09375 13.421875 -25.09375 C 15.640625 -25.09375 17.640625 -24.601562 19.421875 -23.625 C 21.203125 -22.644531 22.617188 -21.207031 23.671875 -19.3125 C 24.722656 -17.414062 25.25 -15.101562 25.25 -12.375 Z M 19.125 -12.375 C 19.125 -13.988281 18.894531 -15.351562 18.4375 -16.46875 C 17.988281 -17.582031 17.335938 -18.425781 16.484375 -19 C 15.628906 -19.570312 14.609375 -19.859375 13.421875 -19.859375 C 12.234375 -19.859375 11.210938 -19.570312 10.359375 -19 C 9.503906 -18.425781 8.847656 -17.582031 8.390625 -16.46875 C 7.941406 -15.351562 7.71875 -13.988281 7.71875 -12.375 C 7.71875 -10.769531 7.941406 -9.410156 8.390625 -8.296875 C 8.847656 -7.179688 9.503906 -6.335938 10.359375 -5.765625 C 11.210938 -5.191406 12.234375 -4.90625 13.421875 -4.90625 C 14.609375 -4.90625 15.628906 -5.191406 16.484375 -5.765625 C 17.335938 -6.335938 17.988281 -7.179688 18.4375 -8.296875 C 18.894531 -9.410156 19.125 -10.769531 19.125 -12.375 Z M 19.125 -12.375 "></path></g></g></g><g fill="#ffffff" fill-opacity="1"><g transform="translate(244.411939, 129.941416)"><g><path d="M 16.859375 -24.765625 L 22.828125 -24.765625 L 22.828125 -8.796875 C 22.828125 -6.941406 22.382812 -5.332031 21.5 -3.96875 C 20.625 -2.601562 19.398438 -1.546875 17.828125 -0.796875 C 16.253906 -0.0546875 14.429688 0.3125 12.359375 0.3125 C 10.253906 0.3125 8.414062 -0.0546875 6.84375 -0.796875 C 5.269531 -1.546875 4.046875 -2.601562 3.171875 -3.96875 C 2.304688 -5.332031 1.875 -6.941406 1.875 -8.796875 L 1.875 -24.765625 L 7.859375 -24.765625 L 7.859375 -9.3125 C 7.859375 -8.457031 8.046875 -7.691406 8.421875 -7.015625 C 8.796875 -6.347656 9.320312 -5.828125 10 -5.453125 C 10.675781 -5.078125 11.460938 -4.890625 12.359375 -4.890625 C 13.253906 -4.890625 14.035156 -5.078125 14.703125 -5.453125 C 15.378906 -5.828125 15.90625 -6.347656 16.28125 -7.015625 C 16.664062 -7.691406 16.859375 -8.457031 16.859375 -9.3125 Z M 16.859375 -24.765625 "></path></g></g></g><g fill="#ffffff" fill-opacity="1"><g transform="translate(269.109726, 129.941416)"><g><path d="M 1.875 0 L 1.875 -24.765625 L 12.109375 -24.765625 C 13.960938 -24.765625 15.5625 -24.429688 16.90625 -23.765625 C 18.257812 -23.097656 19.300781 -22.144531 20.03125 -20.90625 C 20.769531 -19.664062 21.140625 -18.203125 21.140625 -16.515625 C 21.140625 -14.796875 20.765625 -13.335938 20.015625 -12.140625 C 19.265625 -10.941406 18.195312 -10.03125 16.8125 -9.40625 C 15.4375 -8.78125 13.804688 -8.46875 11.921875 -8.46875 L 5.453125 -8.46875 L 5.453125 -13.1875 L 10.8125 -13.1875 C 11.707031 -13.1875 12.457031 -13.304688 13.0625 -13.546875 C 13.675781 -13.785156 14.140625 -14.144531 14.453125 -14.625 C 14.773438 -15.113281 14.9375 -15.742188 14.9375 -16.515625 C 14.9375 -17.285156 14.773438 -17.921875 14.453125 -18.421875 C 14.140625 -18.921875 13.675781 -19.296875 13.0625 -19.546875 C 12.457031 -19.804688 11.707031 -19.9375 10.8125 -19.9375 L 7.859375 -19.9375 L 7.859375 0 Z M 15.8125 -11.3125 L 21.984375 0 L 15.453125 0 L 9.40625 -11.3125 Z M 15.8125 -11.3125 "></path></g></g></g><g fill="#ffffff" fill-opacity="1"><g transform="translate(291.643591, 129.941416)"><g><path d="M 15.265625 -17.34375 C 15.179688 -18.226562 14.820312 -18.914062 14.1875 -19.40625 C 13.550781 -19.90625 12.648438 -20.15625 11.484375 -20.15625 C 10.710938 -20.15625 10.066406 -20.050781 9.546875 -19.84375 C 9.035156 -19.644531 8.648438 -19.367188 8.390625 -19.015625 C 8.128906 -18.671875 7.992188 -18.273438 7.984375 -17.828125 C 7.972656 -17.453125 8.050781 -17.125 8.21875 -16.84375 C 8.382812 -16.5625 8.625 -16.3125 8.9375 -16.09375 C 9.257812 -15.882812 9.644531 -15.695312 10.09375 -15.53125 C 10.539062 -15.375 11.050781 -15.234375 11.625 -15.109375 L 13.75 -14.625 C 14.96875 -14.363281 16.046875 -14.007812 16.984375 -13.5625 C 17.929688 -13.125 18.722656 -12.597656 19.359375 -11.984375 C 20.003906 -11.367188 20.488281 -10.660156 20.8125 -9.859375 C 21.144531 -9.066406 21.316406 -8.175781 21.328125 -7.1875 C 21.316406 -5.625 20.921875 -4.28125 20.140625 -3.15625 C 19.359375 -2.03125 18.234375 -1.171875 16.765625 -0.578125 C 15.304688 0.015625 13.546875 0.3125 11.484375 0.3125 C 9.410156 0.3125 7.601562 0.00390625 6.0625 -0.609375 C 4.53125 -1.234375 3.335938 -2.175781 2.484375 -3.4375 C 1.628906 -4.707031 1.1875 -6.3125 1.15625 -8.25 L 6.890625 -8.25 C 6.941406 -7.445312 7.15625 -6.78125 7.53125 -6.25 C 7.90625 -5.71875 8.425781 -5.3125 9.09375 -5.03125 C 9.757812 -4.757812 10.53125 -4.625 11.40625 -4.625 C 12.21875 -4.625 12.90625 -4.734375 13.46875 -4.953125 C 14.039062 -5.171875 14.476562 -5.472656 14.78125 -5.859375 C 15.09375 -6.242188 15.253906 -6.6875 15.265625 -7.1875 C 15.253906 -7.65625 15.109375 -8.054688 14.828125 -8.390625 C 14.546875 -8.734375 14.109375 -9.023438 13.515625 -9.265625 C 12.929688 -9.515625 12.191406 -9.742188 11.296875 -9.953125 L 8.703125 -10.5625 C 6.554688 -11.050781 4.867188 -11.84375 3.640625 -12.9375 C 2.410156 -14.039062 1.796875 -15.53125 1.796875 -17.40625 C 1.796875 -18.9375 2.207031 -20.28125 3.03125 -21.4375 C 3.863281 -22.59375 5.015625 -23.488281 6.484375 -24.125 C 7.953125 -24.769531 9.625 -25.09375 11.5 -25.09375 C 13.414062 -25.09375 15.082031 -24.769531 16.5 -24.125 C 17.914062 -23.476562 19.015625 -22.566406 19.796875 -21.390625 C 20.578125 -20.222656 20.972656 -18.875 20.984375 -17.34375 Z M 15.265625 -17.34375 "></path></g></g></g><g fill="#ffffff" fill-opacity="1"><g transform="translate(314.12908, 129.941416)"><g><path d="M 1.875 0 L 1.875 -24.765625 L 19.140625 -24.765625 L 19.140625 -19.90625 L 7.859375 -19.90625 L 7.859375 -14.828125 L 18.25 -14.828125 L 18.25 -9.953125 L 7.859375 -9.953125 L 7.859375 -4.859375 L 19.140625 -4.859375 L 19.140625 0 Z M 1.875 0 "></path></g></g></g><g fill="#ffffff" fill-opacity="1"><g transform="translate(96.885608, 163.923835)"><g><path d="M 1.875 -24.765625 L 9.28125 -24.765625 L 15.578125 -9.4375 L 15.859375 -9.4375 L 22.15625 -24.765625 L 29.5625 -24.765625 L 29.5625 0 L 23.734375 0 L 23.734375 -15.203125 L 23.53125 -15.203125 L 17.578125 -0.15625 L 13.859375 -0.15625 L 7.90625 -15.296875 L 7.703125 -15.296875 L 7.703125 0 L 1.875 0 Z M 1.875 -24.765625 "></path></g></g></g><g fill="#ffffff" fill-opacity="1"><g transform="translate(128.316964, 163.923835)"><g><path d="M 7.234375 0 L 0.796875 0 L 9.15625 -24.765625 L 17.125 -24.765625 L 25.46875 0 L 19.046875 0 L 13.234375 -18.515625 L 13.03125 -18.515625 Z M 6.375 -9.75 L 19.8125 -9.75 L 19.8125 -5.203125 L 6.375 -5.203125 Z M 6.375 -9.75 "></path></g></g></g><g fill="#ffffff" fill-opacity="1"><g transform="translate(154.586323, 163.923835)"><g><path d="M 22.953125 -24.765625 L 22.953125 0 L 17.875 0 L 8.015625 -14.296875 L 7.859375 -14.296875 L 7.859375 0 L 1.875 0 L 1.875 -24.765625 L 7.03125 -24.765625 L 16.765625 -10.5 L 16.96875 -10.5 L 16.96875 -24.765625 Z M 22.953125 -24.765625 "></path></g></g></g><g fill="#ffffff" fill-opacity="1"><g transform="translate(179.404999, 163.923835)"><g><path d="M 7.234375 0 L 0.796875 0 L 9.15625 -24.765625 L 17.125 -24.765625 L 25.46875 0 L 19.046875 0 L 13.234375 -18.515625 L 13.03125 -18.515625 Z M 6.375 -9.75 L 19.8125 -9.75 L 19.8125 -5.203125 L 6.375 -5.203125 Z M 6.375 -9.75 "></path></g></g></g><g fill="#ffffff" fill-opacity="1"><g transform="translate(205.674358, 163.923835)"><g><path d="M 18.125 -16.671875 C 17.988281 -17.179688 17.785156 -17.628906 17.515625 -18.015625 C 17.253906 -18.410156 16.925781 -18.742188 16.53125 -19.015625 C 16.144531 -19.285156 15.703125 -19.492188 15.203125 -19.640625 C 14.703125 -19.785156 14.15625 -19.859375 13.5625 -19.859375 C 12.363281 -19.859375 11.328125 -19.566406 10.453125 -18.984375 C 9.578125 -18.398438 8.898438 -17.550781 8.421875 -16.4375 C 7.953125 -15.332031 7.71875 -13.992188 7.71875 -12.421875 C 7.71875 -10.828125 7.945312 -9.46875 8.40625 -8.34375 C 8.863281 -7.226562 9.523438 -6.375 10.390625 -5.78125 C 11.265625 -5.195312 12.320312 -4.90625 13.5625 -4.90625 C 14.65625 -4.90625 15.582031 -5.082031 16.34375 -5.4375 C 17.113281 -5.800781 17.695312 -6.3125 18.09375 -6.96875 C 18.488281 -7.632812 18.6875 -8.414062 18.6875 -9.3125 L 19.796875 -9.171875 L 13.765625 -9.171875 L 13.765625 -13.546875 L 24.453125 -13.546875 L 24.453125 -10.265625 C 24.453125 -8.046875 23.976562 -6.144531 23.03125 -4.5625 C 22.09375 -2.988281 20.800781 -1.773438 19.15625 -0.921875 C 17.519531 -0.078125 15.640625 0.34375 13.515625 0.34375 C 11.148438 0.34375 9.070312 -0.164062 7.28125 -1.1875 C 5.5 -2.21875 4.109375 -3.679688 3.109375 -5.578125 C 2.109375 -7.472656 1.609375 -9.726562 1.609375 -12.34375 C 1.609375 -14.375 1.910156 -16.175781 2.515625 -17.75 C 3.117188 -19.332031 3.960938 -20.671875 5.046875 -21.765625 C 6.128906 -22.859375 7.382812 -23.6875 8.8125 -24.25 C 10.25 -24.8125 11.789062 -25.09375 13.4375 -25.09375 C 14.875 -25.09375 16.210938 -24.882812 17.453125 -24.46875 C 18.691406 -24.0625 19.785156 -23.484375 20.734375 -22.734375 C 21.691406 -21.992188 22.46875 -21.101562 23.0625 -20.0625 C 23.664062 -19.03125 24.039062 -17.898438 24.1875 -16.671875 Z M 18.125 -16.671875 "></path></g></g></g><g fill="#ffffff" fill-opacity="1"><g transform="translate(231.774465, 163.923835)"><g><path d="M 1.875 0 L 1.875 -24.765625 L 19.140625 -24.765625 L 19.140625 -19.90625 L 7.859375 -19.90625 L 7.859375 -14.828125 L 18.25 -14.828125 L 18.25 -9.953125 L 7.859375 -9.953125 L 7.859375 -4.859375 L 19.140625 -4.859375 L 19.140625 0 Z M 1.875 0 "></path></g></g></g><g fill="#ffffff" fill-opacity="1"><g transform="translate(252.785112, 163.923835)"><g><path d="M 1.875 -24.765625 L 9.28125 -24.765625 L 15.578125 -9.4375 L 15.859375 -9.4375 L 22.15625 -24.765625 L 29.5625 -24.765625 L 29.5625 0 L 23.734375 0 L 23.734375 -15.203125 L 23.53125 -15.203125 L 17.578125 -0.15625 L 13.859375 -0.15625 L 7.90625 -15.296875 L 7.703125 -15.296875 L 7.703125 0 L 1.875 0 Z M 1.875 -24.765625 "></path></g></g></g><g fill="#ffffff" fill-opacity="1"><g transform="translate(284.216467, 163.923835)"><g><path d="M 1.875 0 L 1.875 -24.765625 L 19.140625 -24.765625 L 19.140625 -19.90625 L 7.859375 -19.90625 L 7.859375 -14.828125 L 18.25 -14.828125 L 18.25 -9.953125 L 7.859375 -9.953125 L 7.859375 -4.859375 L 19.140625 -4.859375 L 19.140625 0 Z M 1.875 0 "></path></g></g></g><g fill="#ffffff" fill-opacity="1"><g transform="translate(305.227113, 163.923835)"><g><path d="M 22.953125 -24.765625 L 22.953125 0 L 17.875 0 L 8.015625 -14.296875 L 7.859375 -14.296875 L 7.859375 0 L 1.875 0 L 1.875 -24.765625 L 7.03125 -24.765625 L 16.765625 -10.5 L 16.96875 -10.5 L 16.96875 -24.765625 Z M 22.953125 -24.765625 "></path></g></g></g><g fill="#ffffff" fill-opacity="1"><g transform="translate(330.045801, 163.923835)"><g><path d="M 1.0625 -19.90625 L 1.0625 -24.765625 L 22 -24.765625 L 22 -19.90625 L 14.484375 -19.90625 L 14.484375 0 L 8.578125 0 L 8.578125 -19.90625 Z M 1.0625 -19.90625 "></path></g></g></g><g fill="#ffffff" fill-opacity="1"><g transform="translate(152.082904, 197.906254)"><g><path d="M 15.265625 -17.34375 C 15.179688 -18.226562 14.820312 -18.914062 14.1875 -19.40625 C 13.550781 -19.90625 12.648438 -20.15625 11.484375 -20.15625 C 10.710938 -20.15625 10.066406 -20.050781 9.546875 -19.84375 C 9.035156 -19.644531 8.648438 -19.367188 8.390625 -19.015625 C 8.128906 -18.671875 7.992188 -18.273438 7.984375 -17.828125 C 7.972656 -17.453125 8.050781 -17.125 8.21875 -16.84375 C 8.382812 -16.5625 8.625 -16.3125 8.9375 -16.09375 C 9.257812 -15.882812 9.644531 -15.695312 10.09375 -15.53125 C 10.539062 -15.375 11.050781 -15.234375 11.625 -15.109375 L 13.75 -14.625 C 14.96875 -14.363281 16.046875 -14.007812 16.984375 -13.5625 C 17.929688 -13.125 18.722656 -12.597656 19.359375 -11.984375 C 20.003906 -11.367188 20.488281 -10.660156 20.8125 -9.859375 C 21.144531 -9.066406 21.316406 -8.175781 21.328125 -7.1875 C 21.316406 -5.625 20.921875 -4.28125 20.140625 -3.15625 C 19.359375 -2.03125 18.234375 -1.171875 16.765625 -0.578125 C 15.304688 0.015625 13.546875 0.3125 11.484375 0.3125 C 9.410156 0.3125 7.601562 0.00390625 6.0625 -0.609375 C 4.53125 -1.234375 3.335938 -2.175781 2.484375 -3.4375 C 1.628906 -4.707031 1.1875 -6.3125 1.15625 -8.25 L 6.890625 -8.25 C 6.941406 -7.445312 7.15625 -6.78125 7.53125 -6.25 C 7.90625 -5.71875 8.425781 -5.3125 9.09375 -5.03125 C 9.757812 -4.757812 10.53125 -4.625 11.40625 -4.625 C 12.21875 -4.625 12.90625 -4.734375 13.46875 -4.953125 C 14.039062 -5.171875 14.476562 -5.472656 14.78125 -5.859375 C 15.09375 -6.242188 15.253906 -6.6875 15.265625 -7.1875 C 15.253906 -7.65625 15.109375 -8.054688 14.828125 -8.390625 C 14.546875 -8.734375 14.109375 -9.023438 13.515625 -9.265625 C 12.929688 -9.515625 12.191406 -9.742188 11.296875 -9.953125 L 8.703125 -10.5625 C 6.554688 -11.050781 4.867188 -11.84375 3.640625 -12.9375 C 2.410156 -14.039062 1.796875 -15.53125 1.796875 -17.40625 C 1.796875 -18.9375 2.207031 -20.28125 3.03125 -21.4375 C 3.863281 -22.59375 5.015625 -23.488281 6.484375 -24.125 C 7.953125 -24.769531 9.625 -25.09375 11.5 -25.09375 C 13.414062 -25.09375 15.082031 -24.769531 16.5 -24.125 C 17.914062 -23.476562 19.015625 -22.566406 19.796875 -21.390625 C 20.578125 -20.222656 20.972656 -18.875 20.984375 -17.34375 Z M 15.265625 -17.34375 "></path></g></g></g><g fill="#ffffff" fill-opacity="1"><g transform="translate(174.568405, 197.906254)"><g><path d="M 0.640625 -24.765625 L 7.328125 -24.765625 L 12.5625 -14.40625 L 12.78125 -14.40625 L 18.015625 -24.765625 L 24.703125 -24.765625 L 15.640625 -8.265625 L 15.640625 0 L 9.703125 0 L 9.703125 -8.265625 Z M 0.640625 -24.765625 "></path></g></g></g><g fill="#ffffff" fill-opacity="1"><g transform="translate(199.906908, 197.906254)"><g><path d="M 15.265625 -17.34375 C 15.179688 -18.226562 14.820312 -18.914062 14.1875 -19.40625 C 13.550781 -19.90625 12.648438 -20.15625 11.484375 -20.15625 C 10.710938 -20.15625 10.066406 -20.050781 9.546875 -19.84375 C 9.035156 -19.644531 8.648438 -19.367188 8.390625 -19.015625 C 8.128906 -18.671875 7.992188 -18.273438 7.984375 -17.828125 C 7.972656 -17.453125 8.050781 -17.125 8.21875 -16.84375 C 8.382812 -16.5625 8.625 -16.3125 8.9375 -16.09375 C 9.257812 -15.882812 9.644531 -15.695312 10.09375 -15.53125 C 10.539062 -15.375 11.050781 -15.234375 11.625 -15.109375 L 13.75 -14.625 C 14.96875 -14.363281 16.046875 -14.007812 16.984375 -13.5625 C 17.929688 -13.125 18.722656 -12.597656 19.359375 -11.984375 C 20.003906 -11.367188 20.488281 -10.660156 20.8125 -9.859375 C 21.144531 -9.066406 21.316406 -8.175781 21.328125 -7.1875 C 21.316406 -5.625 20.921875 -4.28125 20.140625 -3.15625 C 19.359375 -2.03125 18.234375 -1.171875 16.765625 -0.578125 C 15.304688 0.015625 13.546875 0.3125 11.484375 0.3125 C 9.410156 0.3125 7.601562 0.00390625 6.0625 -0.609375 C 4.53125 -1.234375 3.335938 -2.175781 2.484375 -3.4375 C 1.628906 -4.707031 1.1875 -6.3125 1.15625 -8.25 L 6.890625 -8.25 C 6.941406 -7.445312 7.15625 -6.78125 7.53125 -6.25 C 7.90625 -5.71875 8.425781 -5.3125 9.09375 -5.03125 C 9.757812 -4.757812 10.53125 -4.625 11.40625 -4.625 C 12.21875 -4.625 12.90625 -4.734375 13.46875 -4.953125 C 14.039062 -5.171875 14.476562 -5.472656 14.78125 -5.859375 C 15.09375 -6.242188 15.253906 -6.6875 15.265625 -7.1875 C 15.253906 -7.65625 15.109375 -8.054688 14.828125 -8.390625 C 14.546875 -8.734375 14.109375 -9.023438 13.515625 -9.265625 C 12.929688 -9.515625 12.191406 -9.742188 11.296875 -9.953125 L 8.703125 -10.5625 C 6.554688 -11.050781 4.867188 -11.84375 3.640625 -12.9375 C 2.410156 -14.039062 1.796875 -15.53125 1.796875 -17.40625 C 1.796875 -18.9375 2.207031 -20.28125 3.03125 -21.4375 C 3.863281 -22.59375 5.015625 -23.488281 6.484375 -24.125 C 7.953125 -24.769531 9.625 -25.09375 11.5 -25.09375 C 13.414062 -25.09375 15.082031 -24.769531 16.5 -24.125 C 17.914062 -23.476562 19.015625 -22.566406 19.796875 -21.390625 C 20.578125 -20.222656 20.972656 -18.875 20.984375 -17.34375 Z M 15.265625 -17.34375 "></path></g></g></g><g fill="#ffffff" fill-opacity="1"><g transform="translate(222.392408, 197.906254)"><g><path d="M 1.0625 -19.90625 L 1.0625 -24.765625 L 22 -24.765625 L 22 -19.90625 L 14.484375 -19.90625 L 14.484375 0 L 8.578125 0 L 8.578125 -19.90625 Z M 1.0625 -19.90625 "></path></g></g></g><g fill="#ffffff" fill-opacity="1"><g transform="translate(245.446088, 197.906254)"><g><path d="M 1.875 0 L 1.875 -24.765625 L 19.140625 -24.765625 L 19.140625 -19.90625 L 7.859375 -19.90625 L 7.859375 -14.828125 L 18.25 -14.828125 L 18.25 -9.953125 L 7.859375 -9.953125 L 7.859375 -4.859375 L 19.140625 -4.859375 L 19.140625 0 Z M 1.875 0 "></path></g></g></g><g fill="#ffffff" fill-opacity="1"><g transform="translate(266.456735, 197.906254)"><g><path d="M 1.875 -24.765625 L 9.28125 -24.765625 L 15.578125 -9.4375 L 15.859375 -9.4375 L 22.15625 -24.765625 L 29.5625 -24.765625 L 29.5625 0 L 23.734375 0 L 23.734375 -15.203125 L 23.53125 -15.203125 L 17.578125 -0.15625 L 13.859375 -0.15625 L 7.90625 -15.296875 L 7.703125 -15.296875 L 7.703125 0 L 1.875 0 Z M 1.875 -24.765625 "></path></g></g></g><g fill="#1f3c5f" fill-opacity="1"><g transform="translate(133.754165, 222.238185)"><g><path d="M 0.421875 -13.984375 L 3.28125 -13.984375 L 6.703125 -7.796875 L 6.84375 -7.796875 L 10.265625 -13.984375 L 13.125 -13.984375 L 8.046875 -5.21875 L 8.046875 0 L 5.515625 0 L 5.515625 -5.21875 Z M 0.421875 -13.984375 "></path></g></g></g><g fill="#1f3c5f" fill-opacity="1"><g transform="translate(147.306751, 222.238185)"><g><path d="M 5.84375 0.203125 C 4.820312 0.203125 3.9375 -0.0195312 3.1875 -0.46875 C 2.4375 -0.914062 1.851562 -1.546875 1.4375 -2.359375 C 1.019531 -3.171875 0.8125 -4.117188 0.8125 -5.203125 C 0.8125 -6.285156 1.019531 -7.234375 1.4375 -8.046875 C 1.851562 -8.867188 2.4375 -9.503906 3.1875 -9.953125 C 3.9375 -10.398438 4.820312 -10.625 5.84375 -10.625 C 6.875 -10.625 7.765625 -10.398438 8.515625 -9.953125 C 9.265625 -9.503906 9.84375 -8.867188 10.25 -8.046875 C 10.664062 -7.234375 10.875 -6.285156 10.875 -5.203125 C 10.875 -4.117188 10.664062 -3.171875 10.25 -2.359375 C 9.84375 -1.546875 9.265625 -0.914062 8.515625 -0.46875 C 7.765625 -0.0195312 6.875 0.203125 5.84375 0.203125 Z M 5.859375 -1.78125 C 6.410156 -1.78125 6.875 -1.929688 7.25 -2.234375 C 7.625 -2.546875 7.90625 -2.957031 8.09375 -3.46875 C 8.28125 -3.988281 8.375 -4.570312 8.375 -5.21875 C 8.375 -5.851562 8.28125 -6.429688 8.09375 -6.953125 C 7.90625 -7.472656 7.625 -7.890625 7.25 -8.203125 C 6.875 -8.515625 6.410156 -8.671875 5.859375 -8.671875 C 5.285156 -8.671875 4.8125 -8.515625 4.4375 -8.203125 C 4.0625 -7.890625 3.78125 -7.472656 3.59375 -6.953125 C 3.414062 -6.429688 3.328125 -5.851562 3.328125 -5.21875 C 3.328125 -4.570312 3.414062 -3.988281 3.59375 -3.46875 C 3.78125 -2.957031 4.0625 -2.546875 4.4375 -2.234375 C 4.8125 -1.929688 5.285156 -1.78125 5.859375 -1.78125 Z M 5.859375 -1.78125 "></path></g></g></g><g fill="#1f3c5f" fill-opacity="1"><g transform="translate(159.001324, 222.238185)"><g><path d="M 7.953125 -4.40625 L 7.953125 -10.484375 L 10.4375 -10.484375 L 10.4375 0 L 8.03125 0 L 8.03125 -1.859375 L 7.921875 -1.859375 C 7.679688 -1.273438 7.289062 -0.796875 6.75 -0.421875 C 6.21875 -0.046875 5.554688 0.140625 4.765625 0.140625 C 4.078125 0.140625 3.46875 -0.0078125 2.9375 -0.3125 C 2.414062 -0.625 2.003906 -1.070312 1.703125 -1.65625 C 1.410156 -2.25 1.265625 -2.96875 1.265625 -3.8125 L 1.265625 -10.484375 L 3.75 -10.484375 L 3.75 -4.1875 C 3.75 -3.53125 3.929688 -3.003906 4.296875 -2.609375 C 4.660156 -2.210938 5.132812 -2.015625 5.71875 -2.015625 C 6.082031 -2.015625 6.4375 -2.101562 6.78125 -2.28125 C 7.125 -2.457031 7.40625 -2.722656 7.625 -3.078125 C 7.84375 -3.429688 7.953125 -3.875 7.953125 -4.40625 Z M 7.953125 -4.40625 "></path></g></g></g><g fill="#1f3c5f" fill-opacity="1"><g transform="translate(170.70272, 222.238185)"><g><path d="M 1.265625 0 L 1.265625 -10.484375 L 3.671875 -10.484375 L 3.671875 -8.75 L 3.78125 -8.75 C 3.96875 -9.351562 4.296875 -9.816406 4.765625 -10.140625 C 5.234375 -10.472656 5.765625 -10.640625 6.359375 -10.640625 C 6.503906 -10.640625 6.660156 -10.632812 6.828125 -10.625 C 6.992188 -10.613281 7.132812 -10.597656 7.25 -10.578125 L 7.25 -8.296875 C 7.144531 -8.335938 6.976562 -8.367188 6.75 -8.390625 C 6.53125 -8.421875 6.316406 -8.4375 6.109375 -8.4375 C 5.660156 -8.4375 5.253906 -8.335938 4.890625 -8.140625 C 4.535156 -7.953125 4.253906 -7.6875 4.046875 -7.34375 C 3.847656 -7.007812 3.75 -6.617188 3.75 -6.171875 L 3.75 0 Z M 1.265625 0 "></path></g></g></g><g fill="#1f3c5f" fill-opacity="1"><g transform="translate(178.332886, 222.238185)"><g></g></g></g><g fill="#1f3c5f" fill-opacity="1"><g transform="translate(183.107716, 222.238185)"><g><path d="M 7.953125 -4.40625 L 7.953125 -10.484375 L 10.4375 -10.484375 L 10.4375 0 L 8.03125 0 L 8.03125 -1.859375 L 7.921875 -1.859375 C 7.679688 -1.273438 7.289062 -0.796875 6.75 -0.421875 C 6.21875 -0.046875 5.554688 0.140625 4.765625 0.140625 C 4.078125 0.140625 3.46875 -0.0078125 2.9375 -0.3125 C 2.414062 -0.625 2.003906 -1.070312 1.703125 -1.65625 C 1.410156 -2.25 1.265625 -2.96875 1.265625 -3.8125 L 1.265625 -10.484375 L 3.75 -10.484375 L 3.75 -4.1875 C 3.75 -3.53125 3.929688 -3.003906 4.296875 -2.609375 C 4.660156 -2.210938 5.132812 -2.015625 5.71875 -2.015625 C 6.082031 -2.015625 6.4375 -2.101562 6.78125 -2.28125 C 7.125 -2.457031 7.40625 -2.722656 7.625 -3.078125 C 7.84375 -3.429688 7.953125 -3.875 7.953125 -4.40625 Z M 7.953125 -4.40625 "></path></g></g></g><g fill="#1f3c5f" fill-opacity="1"><g transform="translate(194.809112, 222.238185)"><g><path d="M 3.75 -13.984375 L 3.75 0 L 1.265625 0 L 1.265625 -13.984375 Z M 3.75 -13.984375 "></path></g></g></g><g fill="#1f3c5f" fill-opacity="1"><g transform="translate(199.82302, 222.238185)"><g><path d="M 6.515625 -10.484375 L 6.515625 -8.578125 L 0.484375 -8.578125 L 0.484375 -10.484375 Z M 1.96875 -13 L 4.4375 -13 L 4.4375 -3.15625 C 4.4375 -2.820312 4.488281 -2.566406 4.59375 -2.390625 C 4.695312 -2.210938 4.832031 -2.09375 5 -2.03125 C 5.164062 -1.96875 5.351562 -1.9375 5.5625 -1.9375 C 5.71875 -1.9375 5.859375 -1.945312 5.984375 -1.96875 C 6.117188 -2 6.21875 -2.019531 6.28125 -2.03125 L 6.703125 -0.109375 C 6.566406 -0.0546875 6.375 -0.00390625 6.125 0.046875 C 5.882812 0.0976562 5.59375 0.128906 5.25 0.140625 C 4.625 0.160156 4.0625 0.0664062 3.5625 -0.140625 C 3.070312 -0.347656 2.679688 -0.671875 2.390625 -1.109375 C 2.097656 -1.546875 1.957031 -2.09375 1.96875 -2.75 Z M 1.96875 -13 "></path></g></g></g><g fill="#1f3c5f" fill-opacity="1"><g transform="translate(207.132121, 222.238185)"><g><path d="M 1.265625 0 L 1.265625 -10.484375 L 3.75 -10.484375 L 3.75 0 Z M 2.515625 -11.984375 C 2.117188 -11.984375 1.78125 -12.113281 1.5 -12.375 C 1.21875 -12.632812 1.078125 -12.945312 1.078125 -13.3125 C 1.078125 -13.6875 1.21875 -14.003906 1.5 -14.265625 C 1.78125 -14.535156 2.117188 -14.671875 2.515625 -14.671875 C 2.910156 -14.671875 3.25 -14.535156 3.53125 -14.265625 C 3.8125 -14.003906 3.953125 -13.6875 3.953125 -13.3125 C 3.953125 -12.945312 3.8125 -12.632812 3.53125 -12.375 C 3.25 -12.113281 2.910156 -11.984375 2.515625 -11.984375 Z M 2.515625 -11.984375 "></path></g></g></g><g fill="#1f3c5f" fill-opacity="1"><g transform="translate(212.146029, 222.238185)"><g><path d="M 1.265625 0 L 1.265625 -10.484375 L 3.640625 -10.484375 L 3.640625 -8.703125 L 3.75 -8.703125 C 3.96875 -9.304688 4.328125 -9.773438 4.828125 -10.109375 C 5.335938 -10.453125 5.945312 -10.625 6.65625 -10.625 C 7.363281 -10.625 7.960938 -10.453125 8.453125 -10.109375 C 8.941406 -9.765625 9.285156 -9.296875 9.484375 -8.703125 L 9.59375 -8.703125 C 9.820312 -9.285156 10.210938 -9.75 10.765625 -10.09375 C 11.328125 -10.445312 11.988281 -10.625 12.75 -10.625 C 13.707031 -10.625 14.492188 -10.316406 15.109375 -9.703125 C 15.722656 -9.097656 16.03125 -8.210938 16.03125 -7.046875 L 16.03125 0 L 13.546875 0 L 13.546875 -6.65625 C 13.546875 -7.3125 13.367188 -7.789062 13.015625 -8.09375 C 12.671875 -8.394531 12.25 -8.546875 11.75 -8.546875 C 11.15625 -8.546875 10.691406 -8.359375 10.359375 -7.984375 C 10.023438 -7.617188 9.859375 -7.140625 9.859375 -6.546875 L 9.859375 0 L 7.4375 0 L 7.4375 -6.765625 C 7.4375 -7.304688 7.269531 -7.738281 6.9375 -8.0625 C 6.613281 -8.382812 6.191406 -8.546875 5.671875 -8.546875 C 5.316406 -8.546875 4.992188 -8.453125 4.703125 -8.265625 C 4.410156 -8.085938 4.175781 -7.835938 4 -7.515625 C 3.832031 -7.191406 3.75 -6.8125 3.75 -6.375 L 3.75 0 Z M 1.265625 0 "></path></g></g></g><g fill="#1f3c5f" fill-opacity="1"><g transform="translate(229.414652, 222.238185)"><g><path d="M 4.296875 0.21875 C 3.628906 0.21875 3.03125 0.0976562 2.5 -0.140625 C 1.96875 -0.378906 1.546875 -0.734375 1.234375 -1.203125 C 0.929688 -1.671875 0.78125 -2.25 0.78125 -2.9375 C 0.78125 -3.53125 0.890625 -4.019531 1.109375 -4.40625 C 1.328125 -4.800781 1.625 -5.113281 2 -5.34375 C 2.375 -5.570312 2.800781 -5.742188 3.28125 -5.859375 C 3.757812 -5.984375 4.253906 -6.078125 4.765625 -6.140625 C 5.378906 -6.203125 5.875 -6.257812 6.25 -6.3125 C 6.632812 -6.363281 6.914062 -6.441406 7.09375 -6.546875 C 7.269531 -6.660156 7.359375 -6.835938 7.359375 -7.078125 L 7.359375 -7.125 C 7.359375 -7.632812 7.203125 -8.03125 6.890625 -8.3125 C 6.585938 -8.59375 6.148438 -8.734375 5.578125 -8.734375 C 4.972656 -8.734375 4.492188 -8.597656 4.140625 -8.328125 C 3.785156 -8.066406 3.546875 -7.757812 3.421875 -7.40625 L 1.125 -7.734375 C 1.300781 -8.367188 1.597656 -8.898438 2.015625 -9.328125 C 2.441406 -9.765625 2.957031 -10.085938 3.5625 -10.296875 C 4.164062 -10.515625 4.832031 -10.625 5.5625 -10.625 C 6.070312 -10.625 6.578125 -10.5625 7.078125 -10.4375 C 7.578125 -10.320312 8.035156 -10.128906 8.453125 -9.859375 C 8.867188 -9.585938 9.203125 -9.21875 9.453125 -8.75 C 9.703125 -8.289062 9.828125 -7.710938 9.828125 -7.015625 L 9.828125 0 L 7.453125 0 L 7.453125 -1.4375 L 7.375 -1.4375 C 7.21875 -1.144531 7.003906 -0.875 6.734375 -0.625 C 6.460938 -0.375 6.125 -0.171875 5.71875 -0.015625 C 5.3125 0.140625 4.835938 0.21875 4.296875 0.21875 Z M 4.9375 -1.609375 C 5.425781 -1.609375 5.851562 -1.707031 6.21875 -1.90625 C 6.582031 -2.101562 6.863281 -2.363281 7.0625 -2.6875 C 7.257812 -3.019531 7.359375 -3.378906 7.359375 -3.765625 L 7.359375 -5 C 7.285156 -4.9375 7.15625 -4.875 6.96875 -4.8125 C 6.78125 -4.757812 6.570312 -4.710938 6.34375 -4.671875 C 6.125 -4.640625 5.898438 -4.601562 5.671875 -4.5625 C 5.453125 -4.53125 5.257812 -4.503906 5.09375 -4.484375 C 4.726562 -4.429688 4.398438 -4.347656 4.109375 -4.234375 C 3.816406 -4.128906 3.582031 -3.972656 3.40625 -3.765625 C 3.238281 -3.566406 3.15625 -3.304688 3.15625 -2.984375 C 3.15625 -2.523438 3.320312 -2.179688 3.65625 -1.953125 C 3.988281 -1.722656 4.414062 -1.609375 4.9375 -1.609375 Z M 4.9375 -1.609375 "></path></g></g></g><g fill="#1f3c5f" fill-opacity="1"><g transform="translate(240.46712, 222.238185)"><g><path d="M 6.515625 -10.484375 L 6.515625 -8.578125 L 0.484375 -8.578125 L 0.484375 -10.484375 Z M 1.96875 -13 L 4.4375 -13 L 4.4375 -3.15625 C 4.4375 -2.820312 4.488281 -2.566406 4.59375 -2.390625 C 4.695312 -2.210938 4.832031 -2.09375 5 -2.03125 C 5.164062 -1.96875 5.351562 -1.9375 5.5625 -1.9375 C 5.71875 -1.9375 5.859375 -1.945312 5.984375 -1.96875 C 6.117188 -2 6.21875 -2.019531 6.28125 -2.03125 L 6.703125 -0.109375 C 6.566406 -0.0546875 6.375 -0.00390625 6.125 0.046875 C 5.882812 0.0976562 5.59375 0.128906 5.25 0.140625 C 4.625 0.160156 4.0625 0.0664062 3.5625 -0.140625 C 3.070312 -0.347656 2.679688 -0.671875 2.390625 -1.109375 C 2.097656 -1.546875 1.957031 -2.09375 1.96875 -2.75 Z M 1.96875 -13 "></path></g></g></g><g fill="#1f3c5f" fill-opacity="1"><g transform="translate(247.77622, 222.238185)"><g><path d="M 5.921875 0.203125 C 4.867188 0.203125 3.957031 -0.015625 3.1875 -0.453125 C 2.425781 -0.890625 1.835938 -1.507812 1.421875 -2.3125 C 1.015625 -3.125 0.8125 -4.082031 0.8125 -5.1875 C 0.8125 -6.257812 1.019531 -7.203125 1.4375 -8.015625 C 1.851562 -8.835938 2.429688 -9.476562 3.171875 -9.9375 C 3.910156 -10.394531 4.78125 -10.625 5.78125 -10.625 C 6.425781 -10.625 7.035156 -10.519531 7.609375 -10.3125 C 8.191406 -10.101562 8.703125 -9.78125 9.140625 -9.34375 C 9.585938 -8.914062 9.9375 -8.367188 10.1875 -7.703125 C 10.445312 -7.035156 10.578125 -6.242188 10.578125 -5.328125 L 10.578125 -4.5625 L 1.984375 -4.5625 L 1.984375 -6.234375 L 8.203125 -6.234375 C 8.203125 -6.710938 8.101562 -7.132812 7.90625 -7.5 C 7.707031 -7.875 7.425781 -8.164062 7.0625 -8.375 C 6.707031 -8.59375 6.289062 -8.703125 5.8125 -8.703125 C 5.3125 -8.703125 4.867188 -8.578125 4.484375 -8.328125 C 4.097656 -8.085938 3.800781 -7.769531 3.59375 -7.375 C 3.382812 -6.988281 3.273438 -6.554688 3.265625 -6.078125 L 3.265625 -4.625 C 3.265625 -4.019531 3.375 -3.5 3.59375 -3.0625 C 3.820312 -2.625 4.132812 -2.289062 4.53125 -2.0625 C 4.9375 -1.832031 5.410156 -1.71875 5.953125 -1.71875 C 6.304688 -1.71875 6.628906 -1.769531 6.921875 -1.875 C 7.210938 -1.976562 7.460938 -2.128906 7.671875 -2.328125 C 7.890625 -2.523438 8.054688 -2.773438 8.171875 -3.078125 L 10.484375 -2.8125 C 10.335938 -2.207031 10.054688 -1.675781 9.640625 -1.21875 C 9.234375 -0.769531 8.710938 -0.421875 8.078125 -0.171875 C 7.453125 0.078125 6.734375 0.203125 5.921875 0.203125 Z M 5.921875 0.203125 "></path></g></g></g><g fill="#1f3c5f" fill-opacity="1"><g transform="translate(259.177058, 222.238185)"><g></g></g></g><g fill="#1f3c5f" fill-opacity="1"><g transform="translate(263.951888, 222.238185)"><g><path d="M 5.828125 4.15625 C 4.941406 4.15625 4.179688 4.035156 3.546875 3.796875 C 2.910156 3.554688 2.394531 3.234375 2 2.828125 C 1.613281 2.429688 1.347656 1.988281 1.203125 1.5 L 3.421875 0.96875 C 3.523438 1.164062 3.671875 1.363281 3.859375 1.5625 C 4.054688 1.769531 4.316406 1.941406 4.640625 2.078125 C 4.960938 2.210938 5.375 2.28125 5.875 2.28125 C 6.570312 2.28125 7.148438 2.109375 7.609375 1.765625 C 8.078125 1.429688 8.3125 0.878906 8.3125 0.109375 L 8.3125 -1.890625 L 8.1875 -1.890625 C 8.050781 -1.628906 7.863281 -1.363281 7.625 -1.09375 C 7.382812 -0.832031 7.0625 -0.609375 6.65625 -0.421875 C 6.257812 -0.242188 5.757812 -0.15625 5.15625 -0.15625 C 4.351562 -0.15625 3.625 -0.34375 2.96875 -0.71875 C 2.320312 -1.101562 1.804688 -1.671875 1.421875 -2.421875 C 1.035156 -3.179688 0.84375 -4.132812 0.84375 -5.28125 C 0.84375 -6.4375 1.035156 -7.410156 1.421875 -8.203125 C 1.804688 -8.992188 2.328125 -9.59375 2.984375 -10 C 3.640625 -10.414062 4.367188 -10.625 5.171875 -10.625 C 5.785156 -10.625 6.289062 -10.519531 6.6875 -10.3125 C 7.082031 -10.101562 7.398438 -9.851562 7.640625 -9.5625 C 7.878906 -9.28125 8.0625 -9.007812 8.1875 -8.75 L 8.3125 -8.75 L 8.3125 -10.484375 L 10.765625 -10.484375 L 10.765625 0.171875 C 10.765625 1.066406 10.546875 1.804688 10.109375 2.390625 C 9.679688 2.984375 9.097656 3.425781 8.359375 3.71875 C 7.617188 4.007812 6.773438 4.15625 5.828125 4.15625 Z M 5.859375 -2.09375 C 6.378906 -2.09375 6.820312 -2.21875 7.1875 -2.46875 C 7.5625 -2.726562 7.84375 -3.097656 8.03125 -3.578125 C 8.21875 -4.054688 8.3125 -4.628906 8.3125 -5.296875 C 8.3125 -5.953125 8.21875 -6.523438 8.03125 -7.015625 C 7.84375 -7.515625 7.566406 -7.898438 7.203125 -8.171875 C 6.835938 -8.453125 6.390625 -8.59375 5.859375 -8.59375 C 5.304688 -8.59375 4.84375 -8.445312 4.46875 -8.15625 C 4.101562 -7.875 3.828125 -7.484375 3.640625 -6.984375 C 3.453125 -6.492188 3.359375 -5.929688 3.359375 -5.296875 C 3.359375 -4.648438 3.453125 -4.085938 3.640625 -3.609375 C 3.828125 -3.128906 4.109375 -2.753906 4.484375 -2.484375 C 4.859375 -2.222656 5.316406 -2.09375 5.859375 -2.09375 Z M 5.859375 -2.09375 "></path></g></g></g><g fill="#1f3c5f" fill-opacity="1"><g transform="translate(275.981172, 222.238185)"><g><path d="M 7.953125 -4.40625 L 7.953125 -10.484375 L 10.4375 -10.484375 L 10.4375 0 L 8.03125 0 L 8.03125 -1.859375 L 7.921875 -1.859375 C 7.679688 -1.273438 7.289062 -0.796875 6.75 -0.421875 C 6.21875 -0.046875 5.554688 0.140625 4.765625 0.140625 C 4.078125 0.140625 3.46875 -0.0078125 2.9375 -0.3125 C 2.414062 -0.625 2.003906 -1.070312 1.703125 -1.65625 C 1.410156 -2.25 1.265625 -2.96875 1.265625 -3.8125 L 1.265625 -10.484375 L 3.75 -10.484375 L 3.75 -4.1875 C 3.75 -3.53125 3.929688 -3.003906 4.296875 -2.609375 C 4.660156 -2.210938 5.132812 -2.015625 5.71875 -2.015625 C 6.082031 -2.015625 6.4375 -2.101562 6.78125 -2.28125 C 7.125 -2.457031 7.40625 -2.722656 7.625 -3.078125 C 7.84375 -3.429688 7.953125 -3.875 7.953125 -4.40625 Z M 7.953125 -4.40625 "></path></g></g></g><g fill="#1f3c5f" fill-opacity="1"><g transform="translate(287.682569, 222.238185)"><g><path d="M 1.265625 0 L 1.265625 -10.484375 L 3.75 -10.484375 L 3.75 0 Z M 2.515625 -11.984375 C 2.117188 -11.984375 1.78125 -12.113281 1.5 -12.375 C 1.21875 -12.632812 1.078125 -12.945312 1.078125 -13.3125 C 1.078125 -13.6875 1.21875 -14.003906 1.5 -14.265625 C 1.78125 -14.535156 2.117188 -14.671875 2.515625 -14.671875 C 2.910156 -14.671875 3.25 -14.535156 3.53125 -14.265625 C 3.8125 -14.003906 3.953125 -13.6875 3.953125 -13.3125 C 3.953125 -12.945312 3.8125 -12.632812 3.53125 -12.375 C 3.25 -12.113281 2.910156 -11.984375 2.515625 -11.984375 Z M 2.515625 -11.984375 "></path></g></g></g><g fill="#1f3c5f" fill-opacity="1"><g transform="translate(292.696476, 222.238185)"><g><path d="M 5.15625 0.1875 C 4.332031 0.1875 3.59375 -0.0234375 2.9375 -0.453125 C 2.289062 -0.878906 1.78125 -1.492188 1.40625 -2.296875 C 1.03125 -3.097656 0.84375 -4.078125 0.84375 -5.234375 C 0.84375 -6.398438 1.035156 -7.382812 1.421875 -8.1875 C 1.804688 -8.988281 2.328125 -9.59375 2.984375 -10 C 3.640625 -10.414062 4.367188 -10.625 5.171875 -10.625 C 5.785156 -10.625 6.289062 -10.519531 6.6875 -10.3125 C 7.082031 -10.101562 7.394531 -9.851562 7.625 -9.5625 C 7.863281 -9.28125 8.046875 -9.007812 8.171875 -8.75 L 8.265625 -8.75 L 8.265625 -13.984375 L 10.75 -13.984375 L 10.75 0 L 8.3125 0 L 8.3125 -1.65625 L 8.171875 -1.65625 C 8.046875 -1.394531 7.859375 -1.125 7.609375 -0.84375 C 7.367188 -0.5625 7.050781 -0.316406 6.65625 -0.109375 C 6.257812 0.0859375 5.757812 0.1875 5.15625 0.1875 Z M 5.859375 -1.84375 C 6.378906 -1.84375 6.820312 -1.984375 7.1875 -2.265625 C 7.5625 -2.554688 7.84375 -2.957031 8.03125 -3.46875 C 8.21875 -3.976562 8.3125 -4.570312 8.3125 -5.25 C 8.3125 -5.925781 8.21875 -6.515625 8.03125 -7.015625 C 7.84375 -7.515625 7.566406 -7.898438 7.203125 -8.171875 C 6.835938 -8.453125 6.390625 -8.59375 5.859375 -8.59375 C 5.304688 -8.59375 4.84375 -8.445312 4.46875 -8.15625 C 4.101562 -7.875 3.828125 -7.476562 3.640625 -6.96875 C 3.453125 -6.46875 3.359375 -5.894531 3.359375 -5.25 C 3.359375 -4.59375 3.453125 -4.003906 3.640625 -3.484375 C 3.828125 -2.972656 4.109375 -2.570312 4.484375 -2.28125 C 4.859375 -1.988281 5.316406 -1.84375 5.859375 -1.84375 Z M 5.859375 -1.84375 "></path></g></g></g><g fill="#1f3c5f" fill-opacity="1"><g transform="translate(304.821395, 222.238185)"><g><path d="M 5.921875 0.203125 C 4.867188 0.203125 3.957031 -0.015625 3.1875 -0.453125 C 2.425781 -0.890625 1.835938 -1.507812 1.421875 -2.3125 C 1.015625 -3.125 0.8125 -4.082031 0.8125 -5.1875 C 0.8125 -6.257812 1.019531 -7.203125 1.4375 -8.015625 C 1.851562 -8.835938 2.429688 -9.476562 3.171875 -9.9375 C 3.910156 -10.394531 4.78125 -10.625 5.78125 -10.625 C 6.425781 -10.625 7.035156 -10.519531 7.609375 -10.3125 C 8.191406 -10.101562 8.703125 -9.78125 9.140625 -9.34375 C 9.585938 -8.914062 9.9375 -8.367188 10.1875 -7.703125 C 10.445312 -7.035156 10.578125 -6.242188 10.578125 -5.328125 L 10.578125 -4.5625 L 1.984375 -4.5625 L 1.984375 -6.234375 L 8.203125 -6.234375 C 8.203125 -6.710938 8.101562 -7.132812 7.90625 -7.5 C 7.707031 -7.875 7.425781 -8.164062 7.0625 -8.375 C 6.707031 -8.59375 6.289062 -8.703125 5.8125 -8.703125 C 5.3125 -8.703125 4.867188 -8.578125 4.484375 -8.328125 C 4.097656 -8.085938 3.800781 -7.769531 3.59375 -7.375 C 3.382812 -6.988281 3.273438 -6.554688 3.265625 -6.078125 L 3.265625 -4.625 C 3.265625 -4.019531 3.375 -3.5 3.59375 -3.0625 C 3.820312 -2.625 4.132812 -2.289062 4.53125 -2.0625 C 4.9375 -1.832031 5.410156 -1.71875 5.953125 -1.71875 C 6.304688 -1.71875 6.628906 -1.769531 6.921875 -1.875 C 7.210938 -1.976562 7.460938 -2.128906 7.671875 -2.328125 C 7.890625 -2.523438 8.054688 -2.773438 8.171875 -3.078125 L 10.484375 -2.8125 C 10.335938 -2.207031 10.054688 -1.675781 9.640625 -1.21875 C 9.234375 -0.769531 8.710938 -0.421875 8.078125 -0.171875 C 7.453125 0.078125 6.734375 0.203125 5.921875 0.203125 Z M 5.921875 0.203125 "></path></g></g></g><path fill="#ffffff" d="M 211.304688 250.914062 C 211.304688 250.914062 212.785156 252.519531 215.839844 253.855469 C 215.839844 254.921875 215.167969 270.222656 215.167969 270.222656 C 215.167969 270.222656 223.53125 258.421875 228.097656 249.644531 C 232.664062 240.871094 227.308594 232.210938 227.308594 232.210938 C 234.089844 253.550781 211.304688 250.914062 211.304688 250.914062 " fill-opacity="1" fill-rule="nonzero"></path><path fill="#ffffff" d="M 217.46875 242.425781 C 217.46875 245.011719 219.128906 247.09375 221.160156 247.09375 C 223.210938 247.09375 224.855469 244.996094 224.855469 242.425781 C 224.855469 239.835938 223.195312 237.757812 221.160156 237.757812 C 219.113281 237.742188 217.46875 239.835938 217.46875 242.425781 " fill-opacity="1" fill-rule="nonzero"></path><g clip-path="url(#1a54a8e601)"><g clip-path="url(#2d0458b8ea)"><g clip-path="url(#12116613bc)"><path fill="#ffffff" d="M 213.746094 239.617188 L 223.371094 234.769531 L 228.5625 245.222656 L 218.933594 250.070312 Z M 213.746094 239.617188 " fill-opacity="1" fill-rule="nonzero"></path></g></g></g></svg> 